<?xml version="1.0" encoding="utf-8"?>
<svg width="1em" height="1em" viewBox="0 0 1024 1024" xmlns="http://www.w3.org/2000/svg">
  <circle cx="512" cy="512" r="512" fill="currentColor"/>
  <path d="M 755.865 273.466 C 710.101 252.461 661.807 237.485 612.19 228.91 C 611.264 228.734 610.329 229.173 609.874 229.999 C 603.285 241.941 597.304 254.208 591.953 266.752 C 538.471 258.629 484.071 258.629 430.591 266.752 C 425.214 254.176 419.149 241.907 412.421 229.999 C 411.949 229.193 411.028 228.759 410.105 228.91 C 360.503 237.471 312.224 252.449 266.486 273.466 C 266.092 273.631 265.759 273.916 265.535 274.279 C 174.039 410.991 148.976 544.341 161.273 676.008 C 161.344 676.662 161.678 677.259 162.196 677.662 C 215.477 717.13 275.075 747.258 338.447 766.76 C 339.363 767.034 340.353 766.709 340.929 765.946 C 354.536 747.422 366.593 727.807 376.978 707.302 C 377.579 706.109 377.005 704.659 375.751 704.2 C 356.735 696.936 338.324 688.178 320.691 678.007 C 319.305 677.192 319.189 675.23 320.471 674.257 C 324.165 671.5 327.874 668.605 331.402 665.683 C 332.041 665.158 332.923 665.04 333.677 665.38 C 449.188 718.123 574.251 718.123 688.397 665.38 C 689.158 665.015 690.06 665.123 690.713 665.655 C 694.242 668.564 697.951 671.487 701.742 674.257 C 703.029 675.22 702.928 677.181 701.549 678.007 C 683.938 688.276 665.492 697.039 646.406 704.2 C 645.144 704.676 644.582 706.148 645.207 707.343 C 655.765 727.737 667.804 747.328 681.229 765.96 C 681.787 766.747 682.788 767.086 683.71 766.801 C 747.169 747.356 806.845 717.225 860.167 677.704 C 860.695 677.32 861.032 676.727 861.09 676.077 C 875.814 523.827 836.442 391.568 756.733 274.334 C 756.555 273.951 756.247 273.644 755.865 273.466 Z M 394.211 595.844 C 359.429 595.844 330.796 563.917 330.796 524.71 C 330.796 485.503 358.891 453.576 394.211 453.576 C 429.818 453.576 458.203 485.78 457.625 524.71 C 457.652 563.917 429.543 595.844 394.211 595.844 Z M 628.747 595.844 C 593.965 595.844 565.332 563.917 565.332 524.71 C 565.332 485.503 593.427 453.576 628.747 453.576 C 664.355 453.576 692.74 485.78 692.161 524.71 C 692.174 563.917 664.355 595.844 628.747 595.844 Z" fill="#08080b" style=""/>
</svg>