<?xml version="1.0" encoding="UTF-8" standalone="no"?>
<!DOCTYPE svg PUBLIC "-//W3C//DTD SVG 1.1//EN" "http://www.w3.org/Graphics/SVG/1.1/DTD/svg11.dtd">
<svg width="100%" height="100%" viewBox="0 0 100 100" version="1.1" xmlns="http://www.w3.org/2000/svg" xmlns:xlink="http://www.w3.org/1999/xlink" xml:space="preserve" xmlns:serif="http://www.serif.com/" style="fill-rule:evenodd;clip-rule:evenodd;stroke-linejoin:round;stroke-miterlimit:2;">
    <g transform="matrix(0.828297,0,0,0.828297,-144.997,-299.649)">
        <circle cx="235.36" cy="421.99" r="60.28" style="fill:rgb(2,2,2);"/>
    </g>
    <g transform="matrix(0.828297,0,0,0.828297,-144.997,-299.649)">
        <g>
            <path d="M243.96,404.26C245.16,403.16 246.91,402.04 247.7,400.56C248.4,399.26 248.14,397.12 248.34,395.66C249.05,390.57 250.61,386.38 255.7,384.17C257.44,383.42 261.44,383.32 263.19,384.28C265.86,385.73 265.72,389.14 267.28,390.28C268.47,391.15 268.02,391.85 267.42,393.16C266.77,394.56 266.71,395.52 266.71,397.12C266.71,399.29 266.63,401.53 266.86,403.65C267.13,406.11 267.71,408.55 268.57,410.85C269.46,413.21 269.26,415.49 269.26,417.96C269.26,421.54 267.41,423.22 265.63,425.97C263.7,428.94 261.82,432.15 259.03,434.41C257.53,435.62 256.12,435.89 254.37,436.51C252.55,437.15 251.46,438.67 249.91,439.74C248.95,440.41 247.94,440.75 246.97,441.37C246.2,441.87 244.49,442.97 244.66,444.03C244.85,445.23 246.92,445.56 247.93,445.74C250.38,446.19 252.31,447.91 252.59,450.42C252.73,451.72 252.98,453.07 251.62,453.41C250.11,453.79 249.64,452.34 248.55,451.7C246.29,450.35 243.05,453.64 243.62,449.54C243.84,447.96 243.56,447.24 241.55,447.87C240.21,448.29 239.51,449.77 239.82,451.29C240.32,453.73 244.08,455.93 246.33,456.55C247.66,456.91 249.29,456.53 250.49,457.4C252.06,458.54 251.1,459.24 249.63,459.39C247.35,459.63 245.18,459.65 242.9,460.02C240.92,460.34 238.19,460.89 236.56,459.36C235.35,458.22 235.78,457.3 236.98,456.42C238.32,455.42 238.97,455.04 238.16,453.29C237.19,451.19 235.15,448.53 233.57,446.92C231.53,444.83 226.84,445.37 224.06,445.61C222.03,445.78 220.44,446.59 218.62,447.46C216.63,448.41 215.26,449.72 213.43,450.95C211.64,452.15 209.54,452.64 207.56,453.43C205.67,454.19 204.32,455.29 202.88,456.66C200.4,459.02 197.41,460.03 194.87,457.16C191.97,453.88 197.27,453.25 197.93,450.73C198.63,448.06 193.17,448.91 192.91,446.08C192.74,444.17 193.76,443.39 195.36,442.63C196.98,441.86 198.53,441.03 200.13,440.15C203.42,438.33 206.39,435.72 209.83,434.25C211.73,433.44 212.71,433.22 213.81,431.52C214.98,429.71 216.37,427.76 217.94,426.29C219.48,424.83 221.25,423.66 222.8,422.22C224.88,420.3 226.51,418.34 228.74,416.62C230.69,415.12 232.92,414.07 234.85,412.4C236.42,411.04 238.5,409.79 239.83,408.4C241.19,406.95 242.5,405.6 243.96,404.26Z" style="fill:white;fill-rule:nonzero;"/>
        </g>
    </g>
</svg>
